<?xml version="1.0" encoding="utf-8"?>
<!-- Generator: Adobe Illustrator 19.0.0, SVG Export Plug-In . SVG Version: 6.00 Build 0)  -->
<svg version="1.1" id="Layer_1" xmlns="http://www.w3.org/2000/svg" xmlns:xlink="http://www.w3.org/1999/xlink" x="0px" y="0px"
	 viewBox="0 0 500 500" style="enable-background:new 0 0 500 500;" xml:space="preserve">
<style type="text/css">
	.st0{fill:#FFFFFF;}
	.st1{fill:#FED10A;}
	.st2{fill:#24BBB1;}
	.st3{fill:#EF5098;}
	.st4{fill:#17A8E0;}
	.st5{fill:#93C83E;}
	.st6{fill:#0779A1;}
</style>
<g id="XMLID_1_">
	<path id="XMLID_3_" class="st0" d="M193.1,253c0-10.5-6.5-19.7-16.4-23.3c0.4-2.2,0.6-4.5,0.6-6.7c0-19.6-15.9-35.5-35.5-35.5
		c-11.5,0-22.1,5.5-28.8,14.7c-3.3-2.5-7.3-3.9-11.5-3.9c-10.4,0-18.8,8.4-18.8,18.8c0,2.3,0.4,4.5,1.2,6.6
		c-9.8,3.5-16.5,12.9-16.5,23.4c0,10.6,6.6,19.8,16.4,23.4c-0.4,2.2-0.6,4.5-0.6,6.7c0,19.5,15.9,35.4,35.4,35.4
		c11.5,0,22.1-5.5,28.7-14.8c3.3,2.6,7.3,4,11.5,4c10.4,0,18.8-8.4,18.8-18.8c0-2.3-0.4-4.5-1.2-6.6
		C186.4,272.9,193.1,263.5,193.1,253"/>
	<path id="XMLID_4_" class="st1" d="M116.9,241.3l27.5,12.5l27.7-24.3c0.4-2,0.6-4,0.6-6.1c0-17.1-13.9-31-31-31
		c-10.2,0-19.7,5-25.5,13.5l-4.6,23.9L116.9,241.3z"/>
	<path id="XMLID_5_" class="st2" d="M88.4,270.4c-0.4,2-0.6,4.1-0.6,6.2c0,17.1,14,31.1,31.1,31.1c10.3,0,19.9-5.1,25.7-13.6
		l4.6-23.8l-6.1-11.7L115.5,246L88.4,270.4z"/>
	<path id="XMLID_6_" class="st3" d="M88.3,222.9l18.8,4.5l4.1-21.4c-2.5-2-5.7-3-9-3c-8.2,0-14.9,6.6-14.9,14.9
		C87.4,219.5,87.7,221.3,88.3,222.9"/>
	<path id="XMLID_7_" class="st4" d="M86.6,227.4c-8.4,2.8-14.3,10.8-14.3,19.7c0,8.7,5.4,16.4,13.4,19.4l26.4-23.9l-4.8-10.4
		L86.6,227.4z"/>
	<path id="XMLID_8_" class="st5" d="M149.4,294.1c2.6,2,5.7,3.1,9,3.1c8.2,0,14.9-6.6,14.9-14.9c0-1.8-0.3-3.6-0.9-5.1l-18.8-4.4
		L149.4,294.1z"/>
	<path id="XMLID_9_" class="st6" d="M153.2,267.8l20.7,4.8c8.4-2.8,14.3-10.8,14.3-19.7c0-8.6-5.4-16.4-13.4-19.4l-27.1,23.7
		L153.2,267.8z"/>
	<path id="XMLID_12_" class="st0" d="M243.1,275.3l2.5-0.3l0.2,5.1c-6.6,0.9-12.2,1.4-16.9,1.4c-6.2,0-10.6-1.8-13.2-5.4
		c-2.6-3.6-3.9-9.2-3.9-16.8c0-15.2,6.1-22.8,18.1-22.8c5.8,0,10.2,1.6,13.1,4.9c2.9,3.2,4.3,8.4,4.3,15.3l-0.4,4.9h-28.6
		c0,4.8,0.8,8.3,2.6,10.6s4.7,3.5,9,3.5C234.3,275.9,238.7,275.7,243.1,275.3z M240.8,256.6c0-5.3-0.8-9.1-2.5-11.3
		c-1.7-2.2-4.5-3.3-8.3-3.3c-3.8,0-6.7,1.2-8.7,3.5c-1.9,2.3-2.9,6-3,11.1H240.8z"/>
	<rect id="XMLID_13_" class="st0" x="256.3" y="224.3" width="6.5" height="57"/>
	<path id="XMLID_16_" class="st0" d="M303.7,250.5v21.8c0,2.2,5.4,2.1,5.4,2.1l-0.3,5.7c-4.6,0-8.3,0.4-10.6-1.8c-5.2,2.3-10.4,3.2-15.6,3.2
		c-4,0-7-1.1-9.1-3.4c-2.1-2.2-3.1-5.5-3.1-9.7c0-4.2,1.1-7.3,3.2-9.3c2.1-2,5.5-3.2,10-3.7l13.6-1.3v-3.7c0-2.9-0.6-5-1.9-6.3
		c-1.3-1.3-3-1.9-5.2-1.9h-17v-5.7h16.6c4.9,0,8.4,1.1,10.7,3.4C302.6,242.2,303.7,245.8,303.7,250.5z M277,268.2c0,5.3,2.2,8,6.6,8
		c3.9,0,7.8-0.6,11.6-2l2-0.7v-14.3l-12.8,1.2c-2.6,0.2-4.5,1-5.6,2.2C277.6,263.9,277,265.8,277,268.2z"/>
	<path id="XMLID_17_" class="st0" d="M329,242.4c-6.3,0-9.5,2.2-9.5,6.6c0,2,0.7,3.5,2.2,4.3c1.4,0.8,4.7,1.7,9.9,2.6c5.1,0.9,8.8,2.1,10.9,3.8
		c2.1,1.6,3.2,4.6,3.2,9.1c0,4.5-1.4,7.7-4.3,9.8c-2.9,2.1-7,3.1-12.5,3.1c-3.6,0-15.5-1.3-15.5-1.3l0.4-5.6
		c6.8,0.6,11.8,1.2,15.2,1.2c3.3,0,5.9-0.5,7.6-1.6c1.8-1.1,2.7-2.9,2.7-5.4s-0.7-4.2-2.2-5.1c-1.5-0.9-4.8-1.8-9.9-2.5
		c-5.1-0.8-8.7-2-10.8-3.6c-2.1-1.5-3.2-4.5-3.2-8.7s1.5-7.3,4.5-9.3c3-2,6.7-3,11.1-3c3.5,0,15.7,0.9,15.7,0.9v5.7
		C337.9,242.8,332.7,242.4,329,242.4z"/>
	<path id="XMLID_18_" class="st0" d="M377,243.1h-13.8v20.7c0,4.9,0.4,8.2,1.1,9.8c0.7,1.5,2.4,2.3,5.1,2.3l7.7-0.5l0.4,5.4
		c-3.9,0.6-6.8,1-8.8,1c-4.5,0-7.6-1.1-9.3-3.3c-1.8-2.2-2.6-6.4-2.6-12.5v-22.8h-6.2v-5.6h6.2v-13.3h6.4v13.2H377V243.1z"/>
	<path id="XMLID_21_" class="st0" d="M386,231.9v-7.5h6.5v7.5L386,231.9L386,231.9z M386,281.3v-43.8h6.5v43.8H386z"/>
	<path id="XMLID_22_" class="st0" d="M420.7,236.6c1.9,0,5.1,0.4,9.7,1.1l2.1,0.3l-0.3,5.3c-4.6-0.5-8-0.8-10.2-0.8c-4.9,0-8.2,1.2-10,3.5
		c-1.8,2.3-2.7,6.7-2.7,13c0,6.3,0.8,10.7,2.4,13.2c1.6,2.5,5,3.7,10.2,3.7l10.2-0.8l0.3,5.4c-5.4,0.8-9.4,1.2-12.1,1.2
		c-6.7,0-11.4-1.8-14-5.2c-2.5-3.5-3.9-9.3-3.9-17.5c0-8.2,1.4-14,4.1-17.3C409.6,238.3,414.2,236.6,420.7,236.6z"/>
</g>
</svg>
