<?xml version="1.0" encoding="utf-8"?>
<!-- Generator: Adobe Illustrator 19.0.0, SVG Export Plug-In . SVG Version: 6.00 Build 0)  -->
<svg version="1.1" id="Layer_1" xmlns="http://www.w3.org/2000/svg" xmlns:xlink="http://www.w3.org/1999/xlink" x="0px" y="0px"
	 viewBox="0 0 500 500" style="enable-background:new 0 0 500 500;" xml:space="preserve">
<style type="text/css">
	.st0{fill:#019B8F;}
	.st1{fill:#3EBEB0;}
	.st2{fill:#353535;}
	.st3{fill:#F04E98;}
	.st4{fill:#FFFFFF;}
</style>
<g id="XMLID_1_">
	<polygon id="XMLID_3_" class="st4" points="213,250.5 217.7,244.5 229.6,231.8 239.4,231.8 223.5,248.8 240.5,271.4 230.5,271.4 217.9,254 
		213.3,257.8 213.3,271.4 204.9,271.4 204.9,215.7 213.3,215.7 213.3,242.8 212.8,250.5 	"/>
	<path id="XMLID_6_" class="st4" d="M246.3,221.3c0-1.5,0.5-2.6,1.2-3.5c0.8-0.9,2-1.2,3.5-1.2c1.5,0,2.6,0.5,3.5,1.2c0.9,0.8,1.2,2,1.2,3.5
		c0,1.4-0.5,2.6-1.2,3.4c-0.8,0.8-2,1.2-3.5,1.2c-1.5,0-2.7-0.5-3.5-1.2C246.7,223.9,246.3,222.7,246.3,221.3z M255.1,271.4h-8.4
		v-39.5h8.4V271.4z"/>
	<path id="XMLID_9_" class="st4" d="M287.3,231.1c4.9,0,8.9,1.8,11.6,5.3c2.7,3.5,4.1,8.5,4.1,15.1c0,6.4-1.4,11.6-4.1,15.1
		c-2.7,3.5-6.7,5.5-11.6,5.5c-5,0-8.9-1.8-11.6-5.3h-0.6l-1.5,4.7h-6.3v-55.7h8.4v13.3c0,0.9,0,2.4-0.2,4.4c-0.2,2-0.2,3.2-0.2,3.7
		h0.3C278.2,233.1,282.1,231.1,287.3,231.1z M285.2,237.9c-3.4,0-5.8,1.1-7.3,3.1c-1.5,2-2.3,5.3-2.3,10.1v0.6
		c0,4.9,0.8,8.2,2.3,10.5c1.5,2.3,4,3.2,7.5,3.2c3.1,0,5.2-1.2,6.7-3.5c1.5-2.3,2.3-5.8,2.3-10.2
		C294.3,242.4,291.3,237.9,285.2,237.9z"/>
	<path id="XMLID_12_" class="st4" d="M337.5,271.4l-1.7-5.5h-0.3c-1.8,2.4-3.8,4.1-5.8,4.9c-2,0.8-4.4,1.4-7.5,1.4c-3.8,0-6.9-1.1-9.2-3.2
		c-2.3-2.1-3.2-5-3.2-8.9c0-4.1,1.5-7.2,4.6-9.2c3.1-2.1,7.6-3.2,13.9-3.4l6.9-0.2v-2.1c0-2.6-0.6-4.4-1.8-5.6
		c-1.2-1.2-3.1-1.8-5.5-1.8c-2,0-4,0.3-5.8,0.9c-1.8,0.6-3.7,1.4-5.3,2.1l-2.7-6c2.1-1.1,4.4-2,7-2.6c2.6-0.6,4.9-0.9,7.2-0.9
		c5,0,8.9,1.1,11.4,3.4c2.6,2.3,3.8,5.6,3.8,10.4v26.3H337.5z M325,265.6c3.1,0,5.5-0.9,7.3-2.6c1.8-1.7,2.7-4.1,2.7-7.2v-3.4
		l-5,0.2c-4,0.2-6.9,0.8-8.7,2c-1.8,1.2-2.7,3.1-2.7,5.5c0,1.8,0.5,3.2,1.5,4.1C321.2,265.1,322.9,265.6,325,265.6z"/>
	<path id="XMLID_13_" class="st4" d="M390.1,271.4h-8.4v-24.4c0-3.1-0.6-5.3-1.8-6.9c-1.2-1.5-3.2-2.3-5.8-2.3c-3.5,0-6.1,1.1-7.8,3.2
		c-1.7,2.1-2.4,5.6-2.4,10.5v19.8h-8.4v-39.5h6.6l1.2,5.2h0.5c1.2-1.8,2.9-3.4,5-4.4c2.1-1.1,4.6-1.5,7.3-1.5
		c9.5,0,14.2,4.9,14.2,14.5v25.8H390.1z"/>
	<path id="XMLID_16_" class="st4" d="M426.5,271.4l-1.7-5.5h-0.3c-1.8,2.4-3.8,4.1-5.8,4.9c-2,0.8-4.4,1.4-7.5,1.4c-3.8,0-6.9-1.1-9.2-3.2
		c-2.3-2.1-3.2-5-3.2-8.9c0-4.1,1.5-7.2,4.6-9.2c3.1-2.1,7.6-3.2,13.9-3.4l6.9-0.2v-2.1c0-2.6-0.6-4.4-1.8-5.6
		c-1.2-1.2-3.1-1.8-5.5-1.8c-2,0-4,0.3-5.8,0.9c-1.8,0.6-3.7,1.4-5.3,2.1l-2.7-6c2.1-1.1,4.4-2,7-2.6c2.6-0.6,4.9-0.9,7.2-0.9
		c5,0,8.9,1.1,11.4,3.4c2.6,2.3,3.8,5.6,3.8,10.4v26.3H426.5z M414,265.6c3.1,0,5.5-0.9,7.3-2.6c1.8-1.7,2.7-4.1,2.7-7.2v-3.4
		l-5,0.2c-4,0.2-6.9,0.8-8.7,2c-1.8,1.2-2.7,3.1-2.7,5.5c0,1.8,0.5,3.2,1.5,4.1C410.2,265.1,411.9,265.6,414,265.6z"/>
	<path id="XMLID_17_" class="st0" d="M112.7,244.7l-45.2,54.2v12.2h5.6l50.4-60.3C120,248.5,116.5,246.5,112.7,244.7z"/>
	<path id="XMLID_18_" class="st1" d="M123.5,250.8l-50.4,60.3h85.9C159.1,286.5,145.2,264.7,123.5,250.8z"/>
	<path id="XMLID_19_" class="st2" d="M67.5,298.8l45.2-54.2c-13.3-6.3-28.7-9.9-45.2-9.9V298.8z"/>
	<path id="XMLID_20_" class="st3" d="M67.5,188.9v45.8c16.5,0,31.8,3.7,45.2,9.9l46.4-55.7H67.5z"/>
</g>
</svg>
